<svg xmlns="http://www.w3.org/2000/svg" width="116.789" height="15.146" viewBox="0 0 116.789 15.146"><path d="M111.3,0H97.606l-9.83,4.167L83.759,0H73.191L80.1,6.821,66.874,12.007l2.9-2.233-6.615.934H50.261L59.736,0H36.647L20.884,5.672l-.093-.065L25.77,0H10.643l2.336,2.934L0,15.146H12.689l3.289-3.812,8.9-2.859,4.821,6.672H72.611L83.9,10.475l4.167,4.672h13.876L92.3,7.475ZM40.59,13.474,33.937,5.606,47.28,1.28,49.569,2.8Z" fill="gray"/><path d="M123.274,1.218a1.532,1.532,0,0,1,.738.2,1.43,1.43,0,0,1,.57.561,1.579,1.579,0,0,1,.2.757,1.542,1.542,0,0,1-.2.748,1.355,1.355,0,0,1-.561.561,1.514,1.514,0,0,1-.748.2,1.579,1.579,0,0,1-.757-.2,1.383,1.383,0,0,1-.551-.561,1.457,1.457,0,0,1-.206-.748,1.486,1.486,0,0,1,.224-.785,1.411,1.411,0,0,1,.561-.561,1.57,1.57,0,0,1,.748-.2m0,.252a1.318,1.318,0,0,0-.617.159,1.205,1.205,0,0,0-.477.467,1.271,1.271,0,0,0,0,1.261,1.187,1.187,0,0,0,.467.467,1.261,1.261,0,0,0,.626.168,1.289,1.289,0,0,0,.626-.168,1.243,1.243,0,0,0,.467-.467,1.289,1.289,0,0,0,.168-.626,1.215,1.215,0,0,0-.178-.635,1.187,1.187,0,0,0-.467-.467,1.374,1.374,0,0,0-.617-.159m-.663,2.093V1.947h.561a1.411,1.411,0,0,1,.411.047.425.425,0,0,1,.28.392.458.458,0,0,1-.131.318.5.5,0,0,1-.336.14.523.523,0,0,1,.14.093,1.5,1.5,0,0,1,.243.318l.2.318h-.318l-.15-.252a1.448,1.448,0,0,0-.271-.383.336.336,0,0,0-.206-.056h-.131v.691Zm.262-.934h.318a.5.5,0,0,0,.308-.065.215.215,0,0,0,.084-.178.215.215,0,0,0,0-.131.252.252,0,0,0-.112-.084.794.794,0,0,0-.262,0h-.308Z" transform="translate(-7.989 -0.078)" fill="gray"/></svg>