<svg xmlns="http://www.w3.org/2000/svg" width="122.838" height="21.366" viewBox="0 0 122.838 21.366"><g transform="translate(-38.5 -45)"><g transform="translate(38.5 45)"><path d="M38.5,66.367,54.389,45H62.78v7.653L68.491,45H76.61V66.367H68.025V57.315L61.3,66.367H54.389V57.315l-6.721,9.052Z" transform="translate(-38.5 -45)" fill="gray"/><path d="M144.6,45V62.132s0,4.234,4.934,4.234h19.075V45H160.1V61.122h-6.915V45Z" transform="translate(-103.382 -45)" fill="gray"/><path d="M214.4,45V66.367h21.949V61.122h-13.48V45Z" transform="translate(-146.066 -45)" fill="gray"/><path d="M278,45V66.367h29.8l-3.419-5.245H286.547V58.208h15.967L299.095,53H286.547V50.245h10.761L293.889,45Z" transform="translate(-184.958 -45)" fill="gray"/></g></g></svg>