<svg xmlns="http://www.w3.org/2000/svg" width="66.863" height="28.293" viewBox="0 0 66.863 28.293"><g transform="translate(-0.002 0)"><path d="M.494,26.4c-.522.229-.7,0-.192-.311,0,0,13.849-9.153,26.965-18.261,5.272-3.661,5.638-3.487.146-4.091C12.815,2.111,3.488.711,3.488.711,2.838.6,2.865.29,3.579.29H58.727c.842,0,.915.275.128.613Z" transform="translate(0 -0.025)" fill="gray"/><path d="M59.648,2.314c.439-.174.577.064.183.311,0,0-10.215,7.963-23.048,17.574-3.661,2.746-3.753,2.746.659,3.442C51.391,25.966,62.3,27.87,62.3,27.87c1.236.183,1.153.613-.064.613L1.387,28.429c-.842,0-.915-.284-.128-.613Z" transform="translate(-0.06 -0.191)" fill="gray"/><path d="M72.176.558a1.823,1.823,0,0,1-.018,2.59A1.832,1.832,0,0,1,69,1.831a1.876,1.876,0,0,1,.54-1.3,1.857,1.857,0,0,1,2.627.027M69.741.723a1.611,1.611,0,0,0-.476,1.108,1.584,1.584,0,0,0,.449,1.108,1.6,1.6,0,0,0,1.117.5,1.574,1.574,0,0,0,1.144-.467,1.492,1.492,0,0,0,.467-1.089A1.593,1.593,0,0,0,71.984.741,1.574,1.574,0,0,0,70.831.275a1.519,1.519,0,0,0-1.108.449m1.144.055c.586,0,.915.2.915.568a.549.549,0,0,1-.458.577l.458.915h-.494L70.831,2H70.5v.87h-.449V.778Zm-.357.915h.32c.33,0,.485-.092.485-.32s-.165-.339-.5-.339h-.275Z" transform="translate(-5.842 0)" fill="gray"/></g></svg>