<svg xmlns="http://www.w3.org/2000/svg" width="97.1" height="15.3" viewBox="0 0 97.1 15.3"><path d="M13,13.5c.9-1-2.4-1.8-2.2-1.9h15l-7,7.5S38.7,11.6,39,11.6H51.7C46.9,13.1,34,17.3,34,17.3s8.1,8.5,8.9,9.4H31.5c-.2-.3-5.1-7.1-5.1-7.1L16,22.9s-2.9,3.3-3.4,3.9H.1c1-1.3,9.6-9.5,12.9-13.3m53,5.3-8.1-7.3H69.4l4.3,4.6s11-4.4,11.3-4.6H97.2C92.7,13.3,77,19.3,77,19.3s3.3,3,5.5,5.3a12.682,12.682,0,0,0,4.6,2.1H73.5c-.2-.3-4.2-4.7-4.2-4.7S58,26.6,57.7,26.7H45.5c2.6-1,20.5-7.9,20.5-7.9" transform="translate(-0.1 -11.5)" fill="gray"/></svg>