<svg xmlns="http://www.w3.org/2000/svg" width="97.041" height="38.229" viewBox="0 0 97.041 38.229"><g transform="translate(-0.057 -0.002)"><path d="M95.42,10.54a1.68,1.68,0,0,1,.47,1.17,1.57,1.57,0,0,1-.49,1.17,1.64,1.64,0,0,1-2.35,0,1.61,1.61,0,0,1-.49-1.16,1.66,1.66,0,0,1,.51-1.19,1.58,1.58,0,0,1,1.15-.47,1.69,1.69,0,0,1,1.2.49m-2.18.16a1.47,1.47,0,0,0-.43,1,1.43,1.43,0,0,0,.41,1,1.41,1.41,0,0,0,1,.42,1.44,1.44,0,0,0,1-.41,1.35,1.35,0,0,0,.42-1,1.42,1.42,0,0,0-1.42-1.44,1.35,1.35,0,0,0-1,.41m1,.05c.52,0,.78.18.78.5a.49.49,0,0,1-.41.52l.41.84h-.44l-.37-.78H94v.78h-.4V10.75Zm-.32.83h.26c.3,0,.43-.08.43-.28s-.14-.3-.45-.3H94Z" fill="gray"/><path d="M18,8s-5.53,6.72-7.19,11.28a53.53,53.53,0,0,1-3.67,7,5.89,5.89,0,0,1-3.8,2.46,4.79,4.79,0,0,1-3,0c-1-.69.89-3.73,2-5.37a72.718,72.718,0,0,1,4.9-6.56A91.725,91.725,0,0,1,13.63,10s4.06-3.79,5.33-5,1-1.49,1.93-2.12a2.37,2.37,0,0,1,3.09.33,2.18,2.18,0,0,1,.76,2.67c-.12.28-1.36,3.34-2.58,6.25-1.95,4.63-3.21,7.52-3.88,9-1.15,2.59-.7,3.54.25,2.81.38-.3,2.22-3,3.66-4.84,2.16-2.75,4.07-4.88,4.07-4.88S35.09,3.91,36.08,2.68s1-1.77,1.58-2.29a1.23,1.23,0,0,1,1.87.09,1.06,1.06,0,0,1,0,1.73c-.54.55-1.22.51-2.2,1.79l-6.1,8s-5.72,8.76-7.94,11.74a25.55,25.55,0,0,1-4.39,5c-.92.76-1.82,1.7-5.41,1.64-.85-.2-3-.68-2.71-2.27a28.6,28.6,0,0,1,1.37-4.57c.75-2,2.09-4.59,2.94-6.85,1.77-4.65,3.41-8.45,3.4-9S18,8,18,8" fill="gray"/><path d="M40.06,7.41c.62-.85,3-4,3.7-4.85S46.17.84,47,1.8s1,2.75.26,3.13C43.6,6.8,42.52,7.19,41.1,8.08c-.85.52-1.7.18-1.08-.67" fill="gray"/><path d="M30.76,14.35a15.17,15.17,0,0,0,3.51-2c1-.93,2.32-2.39,3-2.44s.83-.06,1.87.51,1.14.73,1.07,1.39a12.67,12.67,0,0,1-1.87,3.79c-.5.59-2.61,2.45-3,2.86s.08.78.45.54,7.2-4.56,8.09-5.22,4.57-3.37,6.09-2.74.51,2.86.51,2.86,3.4-1.9,5.32-3.13c1.72-1.06,4.42-1.82,5.58-1.2s1.75,1.84,1.52,2.4a12.34,12.34,0,0,1-2.21,3.35l-5.78,6.15c-.31.32-.1.68.28.56l1.36-.42c.45-.14.35,1.07,0,1.44s-2,1.32-3.75,2.6a17.448,17.448,0,0,1-1.37,1.12c-1,.49-1.87-.31-2.57-.9s-2-1.77-1.68-2.76c.54-1.44,6.28-6.78,6.67-7.19.55-.55-.21-1.17-.8-.86a60.761,60.761,0,0,0-6.64,4.06c-1.52,1.1-3,3.79-3.81,5.1-1.18,1.84-1.46,3.27-2.27,3.28a5.55,5.55,0,0,1-3.16-1.8,2.41,2.41,0,0,1-.08-2.14c.36-.75,2.77-3.07,4.61-4.83a30.5,30.5,0,0,0,2.16-2.25,18.231,18.231,0,0,0,1.37-1.76c.34-.58.09-.77-.26-.49s-2.64,1.9-2.64,1.9-6.91,4.71-8,5.71-3.77,3.51-4.38,4a4.15,4.15,0,0,1-3.45.81,2,2,0,0,1-1.81-1.55c-.13-.67.37-1.24,1.15-2.34.28-.38,1.88-2.45,2.09-2.67,1.07-1.11,2.76-1.38,2.8-2.56,0-.68-1.25-1.21-1.26-1.8a2.84,2.84,0,0,1,1.27-1.4" fill="gray"/><path d="M70.19,12.08a2.52,2.52,0,0,1,.18,3.29c-.66.55-1.32,1-1.71,1.41s-.37.76-.89,1.46-5.63,7.25-5.63,7.25a19,19,0,0,1-1.58,2,26.469,26.469,0,0,1-3.43,3.55,7.37,7.37,0,0,1-3.33,1.57c-1.65.42-3.57.74-4.5,1.13-1.83.77-7.4,3.64-8.4,4.22s-2.61.15-1.55-.56c1.56-1.06,7.28-4.07,8.66-5.76.5-.61,2.18-1.46,4-3,.78-.65,2-2.22,2.34-2.49,3.76-3,6.34-7.56,7-8.51a13.18,13.18,0,0,1,1.8-2.55c.73-.61,2.47-1.47,2.88-1.82A12.59,12.59,0,0,0,67.65,11c.36-.24,1.55.13,2.54,1" fill="gray"/><path d="M76.3.47c.42-.37,1.4-.84,2.37.55A2.16,2.16,0,0,1,79,3.28a4.39,4.39,0,0,1-1.5,1.46c-1,.63-1.72.86-3.21,1.62a36.682,36.682,0,0,0-3.36,2.25c-.78.46-1.34.24-.65-.9.3-.49,2.18-2.79,3.57-4.57A18.08,18.08,0,0,1,76.3.47" fill="gray"/><path d="M96.82,20.85c-.61-1.3-1.38-1.29-2.17-1a26.31,26.31,0,0,1-4,1.9c-.53.2-5.71,1.92-6.94,2.27-.37.1-.75-.13-.36-.6,1.69-2,2.79-2.8,3.83-4.09.81-1-.09-1.82,0-2.15s1.28-.74,1.94-1.51,2.17-2.84,1.78-4.66c-.33-1.56-2.8-1.53-5-.78-.41.14-2.55,1.1-3.66,1.52-1.77.67-3,.75-10.17,4.8a16.89,16.89,0,0,0-4.75,3.65,13.34,13.34,0,0,0-1.57,2.67,4.43,4.43,0,0,0,0,3.11,8.29,8.29,0,0,0,1.81,2.07A2.24,2.24,0,0,0,69.85,28c2.94-1.81,4.93-2.85,6.06-3.67.37-.27,1.69-1.1,2.34-1.51.23-.15.31,0,.23.21s-.8,2.58-.31,3.8a1.92,1.92,0,0,0,2.29,1.14A107.533,107.533,0,0,1,93,23.65c2.33-.57,3.41-.35,3.78-.7.59-.55.22-1.63,0-2.1M79,19.47c-.64.66-.84,1.21-1.19,1.35s-2.71,1.05-3.6,1.53a22.14,22.14,0,0,1-3,1.25c-.58.23-1.18.48-1.4.15s-.09-.83,1-1.69a44.57,44.57,0,0,1,5.95-3.78c1.21-.63,3.07-1.42,4.17-2a8.89,8.89,0,0,1,3.66-1.08.683.683,0,0,1,.56,1A36.567,36.567,0,0,1,81.94,18c-1.14.67-2.58,1.1-3,1.48" fill="gray"/></g></svg>