<svg xmlns="http://www.w3.org/2000/svg" width="141.534" height="15.146" viewBox="0 0 141.534 15.146"><path d="M36.747,7.97,29.02,17.243H48.877l1.582-1.9H36.144l1.521-1.878H48.815l1.545-1.859H39.21l1.472-1.718H55L56.6,7.97Z" transform="translate(-11.152 -3.063)" fill="gray"/><path d="M71.947,8,64.22,17.236h5.541l6.157-7.352H84.7c.911,0,1.09.283.566.911l-.653.782a2.715,2.715,0,0,1-2.2.967H75.7l-1.582,1.921,4.027,2.771h6.68l-3.8-2.771h3.694c1.976,0,3.263-.2,4.679-1.9l2.124-2.5C92.5,8.874,92.327,8,90.5,8Z" transform="translate(-24.679 -3.074)" fill="gray"/><path d="M112.036,8a6.41,6.41,0,0,0-4.452,1.9L106,11.75c-1.231,1.478.4,1.749,2.161,1.749h10.375c1.533,0,1.318.493.757,1.231a4.249,4.249,0,0,1-.437.456c-.191.179-.566.216-1.9.216h-13.94l-1.576,1.835h18.471a6.551,6.551,0,0,0,4.408-1.847l1.558-1.927c1.176-1.41-.345-1.81-2.075-1.81H113.336c-1.435,0-1.435-.314-.905-.985.148-.179.283-.369.468-.56s.542-.172,2.007-.172h13.97L130.465,8Z" transform="translate(-38.982 -3.074)" fill="gray"/><path d="M164.891,7.977,163.4,9.713a2.617,2.617,0,0,1-2.167.917h-7.389c-.911,0-1.121-.289-.616-.917l1.478-1.736h-5.541l-3.079,3.614c-.523.616-.3.942.616.942h5.511l-3.867,4.679h7.389l3.891-4.716h5.541a2.7,2.7,0,0,0,2.223-.942L170.47,7.94Z" transform="translate(-56.034 -3.051)" fill="gray"/><path d="M185.886,8a6.41,6.41,0,0,0-4.452,1.9l-1.582,1.847c-1.231,1.478.4,1.749,2.161,1.749h10.375c1.533,0,1.318.493.751,1.231a3,3,0,0,1-.456.493,4.866,4.866,0,0,1-1.847.179H176.879l-1.589,1.835h18.471a6.551,6.551,0,0,0,4.409-1.847l1.57-1.958c1.176-1.41-.345-1.81-2.075-1.81H187.2c-1.435,0-1.435-.314-.905-.985.148-.179.179-.24.351-.437.326-.376.659-.3,2.124-.3H202.7L204.315,8Z" transform="translate(-67.362 -3.074)" fill="gray"/><path d="M22.781,0S9.051,10.978,8.1,11.662a4.575,4.575,0,0,1-2.555.653V0H0V13.244a1.945,1.945,0,0,0,1.576,1.9H8.62a8.706,8.706,0,0,0,4.809-1.9L30.1,0Z" fill="gray"/><path d="M227.309,2.688a1.669,1.669,0,0,1,.474,1.176,1.632,1.632,0,0,1-.493,1.182,1.693,1.693,0,0,1-1.188.493,1.675,1.675,0,0,1-1.188-.511,1.632,1.632,0,0,1-.474-1.164A1.65,1.65,0,0,1,224.68,3,1.613,1.613,0,0,1,226.1,2.19a1.675,1.675,0,0,1,1.231.5m-2.173.172a1.416,1.416,0,0,0-.425,1,1.391,1.391,0,0,0,.4.979,1.41,1.41,0,0,0,.991.425,1.435,1.435,0,0,0,.991-.413,1.336,1.336,0,0,0,.413-.961,1.4,1.4,0,0,0-1.4-1.422,1.336,1.336,0,0,0-.973.394m1,.043q.794,0,.794.536a.5.5,0,0,1-.406.493l.419.825h-.5L226.109,4h-.222v.733H225.4V2.885Zm-.277.825h.222c.259,0,.382-.08.382-.265s-.129-.277-.4-.277h-.2Z" transform="translate(-86.25 -0.841)" fill="gray"/></svg>