<?xml version="1.0" encoding="utf-8"?>
<!-- Generator: Adobe Illustrator 26.5.0, SVG Export Plug-In . SVG Version: 6.00 Build 0)  -->
<svg version="1.1" id="Layer_1" xmlns="http://www.w3.org/2000/svg" xmlns:xlink="http://www.w3.org/1999/xlink" x="0px" y="0px"
	 viewBox="0 0 119.8 26.7" style="enable-background:new 0 0 119.8 26.7;" xml:space="preserve">
<style type="text/css">
	.st0{fill:#808080;}
</style>
<g id="Logo_JetSki" transform="translate(-53.1 -73)">
	<g id="Group_132" transform="translate(53.1 73)">
		<g id="Group_131">
			<path id="Path_82" class="st0" d="M29.3,13.8c-0.3-0.7-0.2-1.4,0.2-2h9.7l2.3-3.8h-9.5c0,0,0-0.4,1.2-1.2c0.8-0.5,1.7-0.9,2.6-1
				h8.5L46.6,2H32.4c-1.7,0.1-3.3,0.7-4.7,1.6c-1.5,0.9-2.8,2.1-3.9,3.4l3.1-5h-8.3c0,0-6.7,11-6.8,11.2c-0.3,0.4-0.7,0.7-1.1,1
				c-0.4,0.2-0.9,0.4-1.5,0.4H2.6L0,19h10.8c1.6-0.1,3.1-0.3,4.6-0.8c1-0.3,1.9-0.9,2.6-1.7c0.1-0.2,4.3-7.2,4.3-7.2l-1.3,2.4
				c0,0-1.5,2.6-0.1,4.8c0.8,1.4,2.3,2.3,3.9,2.4H42l2.6-4.3H31.1C31.2,14.7,29.8,14.6,29.3,13.8z"/>
			<path id="Path_83" class="st0" d="M47.7,2h22.8l-2.2,3.7h-8L52.2,19h-8.4l8-13.2h-6.3L47.7,2z"/>
			<path id="Path_84" class="st0" d="M88.5,18.7c-0.2-0.8,0.2-1.7,0.9-2.2l13.6-8.9h-8L87,12.6l3-4.9h-8.9L73,21
				c0.1-0.3,0.2-0.7,0.3-1c0.4-4-3.4-5.8-3.7-5.9S67.4,13,67.3,13C67,12.7,66.9,12.4,67,12c0.1-0.3,0.3-0.5,0.6-0.5h9.8l2.3-3.8
				H63.8c-0.3,0-4,0.1-5.2,3.4s2.1,5.1,2.1,5.1s4,2.1,4.2,2.2c0.1,0.1,0.9,0.4,0.8,1.2c-0.1,0.5-0.5,0.9-1,0.9H52.1l-2.6,4.2h18.2
				c1.5-0.1,2.9-0.6,4-1.6l-1,1.6h8.9l2.6-4.3c0.1,1.1,0.5,2.1,1.3,2.8c0.9,0.8,1.9,1.3,3.1,1.5h5.9l2.6-4.2h-4.4
				C89.7,20.4,88.8,19.7,88.5,18.7z"/>
			<g id="Group_130" transform="translate(93.958 5.631)">
				<path id="Path_85" class="st0" d="M16,5.9L18.4,2h-8L8,5.9H16z"/>
				<path id="Path_86" class="st0" d="M7.3,7L0,19h8l7.4-12L7.3,7z"/>
			</g>
		</g>
	</g>
	<g id="Group_133" transform="translate(167.904 78.158)">
		<path id="Path_87" class="st0" d="M2.5,2C3.9,2,5,3.1,5,4.4c0,1.3-1,2.4-2.4,2.5c0,0-0.1,0-0.1,0C1.1,6.9,0,5.8,0,4.4c0,0,0,0,0,0
			C0,3.1,1.2,2,2.5,2z M2.5,2.6c-1,0.1-1.8,0.9-1.7,1.9c0.1,0.9,0.8,1.7,1.7,1.7c1,0,1.8-0.8,1.8-1.8c0,0,0,0,0,0
			C4.3,3.4,3.5,2.6,2.5,2.6z M2.2,5.6H1.5V3.4c0.3-0.1,0.7-0.1,1-0.1c0.3,0,0.6,0,0.9,0.2c0.2,0.1,0.3,0.3,0.3,0.5
			c0,0.2-0.2,0.4-0.5,0.5v0C3.4,4.6,3.6,4.8,3.6,5c0,0.2,0.1,0.4,0.2,0.5H3C2.9,5.4,2.8,5.3,2.8,5.1c0-0.2-0.2-0.3-0.4-0.3
			c0,0,0,0,0,0H2.2L2.2,5.6z M2.2,4.3h0.2c0.3,0,0.4-0.1,0.4-0.3S2.7,3.8,2.5,3.8H2.2V4.3z"/>
	</g>
</g>
</svg>
