<svg xmlns="http://www.w3.org/2000/svg" width="119.79" height="22.608" viewBox="0 0 119.79 22.608">
  <g id="Logo_JetSki" transform="translate(-53.1 -73)">
    <g id="Group_132" data-name="Group 132" transform="translate(53.1 73)">
      <g id="Group_131" data-name="Group 131">
        <path id="Path_82" data-name="Path 82" d="M82.413,84.734a2.255,2.255,0,0,1,.172-2.02H92.3l2.321-3.825H85.164s-.043-.387,1.246-1.16A7.481,7.481,0,0,1,88.99,76.7H97.5L99.735,73H85.508a10.633,10.633,0,0,0-4.728,1.59,17.533,17.533,0,0,0-3.868,3.439l3.052-4.986h-8.3s-6.705,11-6.834,11.218a3.753,3.753,0,0,1-1.118.989,3.488,3.488,0,0,1-1.461.43H55.722l-2.622,4.3H63.931a17.452,17.452,0,0,0,4.6-.774,4.833,4.833,0,0,0,2.579-1.719c.129-.215,4.341-7.178,4.341-7.178l-1.289,2.45s-1.461,2.579-.086,4.814a4.853,4.853,0,0,0,3.911,2.364H95.05l2.622-4.3H84.219C84.3,85.637,82.886,85.594,82.413,84.734Z" transform="translate(-53.1 -73)" fill="gray"/>
        <path id="Path_83" data-name="Path 83" d="M158.854,73h22.78L179.4,76.7H171.4l-8.081,13.238H154.9L162.938,76.7h-6.318Z" transform="translate(-111.145 -73)" fill="gray"/>
        <path id="Path_84" data-name="Path 84" d="M207.184,97.146a2.162,2.162,0,0,1,.9-2.192L221.669,86.1h-8.038L205.766,91l3.009-4.9h-8.94l-8.124,13.367a6.641,6.641,0,0,0,.258-.989c.43-3.954-3.4-5.76-3.7-5.931s-2.106-1.075-2.235-1.161a.859.859,0,0,1-.3-.946.684.684,0,0,1,.559-.516h9.757l2.321-3.825h-15.86c-.3,0-4.04.129-5.2,3.439s2.063,5.115,2.063,5.115,4.04,2.149,4.169,2.192c.129.086.9.43.817,1.16a.981.981,0,0,1-.989.86H170.779l-2.579,4.212h18.224a6.583,6.583,0,0,0,4.04-1.633l-.989,1.633h8.94l2.622-4.3a4.175,4.175,0,0,0,1.332,2.794,5.982,5.982,0,0,0,3.095,1.5h5.888l2.579-4.212h-4.427A2.4,2.4,0,0,1,207.184,97.146Z" transform="translate(-118.728 -80.469)" fill="gray"/>
        <g id="Group_130" data-name="Group 130" transform="translate(93.958 5.631)">
          <path id="Path_85" data-name="Path 85" d="M298.338,89.968l2.321-3.868h-8.038L290.3,89.968Z" transform="translate(-282.305 -86.1)" fill="gray"/>
          <path id="Path_86" data-name="Path 86" d="M279.05,97.6l-7.35,12.035h8.038l7.35-12.035Z" transform="translate(-271.7 -92.657)" fill="gray"/>
        </g>
      </g>
    </g>
    <g id="Group_133" data-name="Group 133" transform="translate(167.904 78.158)">
      <path id="Path_87" data-name="Path 87" d="M322.736,85a2.408,2.408,0,1,1-.043,4.814,2.45,2.45,0,0,1-2.493-2.407A2.488,2.488,0,0,1,322.736,85Zm-.043.6a1.807,1.807,0,0,0,.043,3.61,1.78,1.78,0,0,0,1.762-1.805,1.816,1.816,0,0,0-1.805-1.805Zm-.3,2.923H321.7V86.332a4.54,4.54,0,0,1,.989-.086,1.793,1.793,0,0,1,.9.172.583.583,0,0,1,.258.473c0,.215-.215.43-.516.516v.043a.605.605,0,0,1,.43.559,2.121,2.121,0,0,0,.172.516h-.774a.99.99,0,0,1-.172-.473.343.343,0,0,0-.387-.3h-.215Zm.043-1.246h.215c.258,0,.43-.086.43-.258s-.172-.258-.387-.258h-.258Z" transform="translate(-320.2 -85)" fill="gray"/>
    </g>
  </g>
</svg>
