<?xml version="1.0" encoding="utf-8"?>
<!-- Generator: Adobe Illustrator 26.5.0, SVG Export Plug-In . SVG Version: 6.00 Build 0)  -->
<svg version="1.1" id="Layer_1" xmlns="http://www.w3.org/2000/svg" xmlns:xlink="http://www.w3.org/1999/xlink" x="0px" y="0px"
	 viewBox="0 0 116.8 21.1" style="enable-background:new 0 0 116.8 21.1;" xml:space="preserve">
<style type="text/css">
	.st0{fill:#808080;}
</style>
<path class="st0" d="M111.3,3H97.6l-9.8,4.2l-4-4.2H73.2l6.9,6.8L66.9,15l2.9-2.2l-6.6,0.9H50.3L59.7,3H36.6L20.9,8.6l-0.1-0.1
	l5-5.6H10.6L13,5.9L0,18.1h12.7l3.3-3.8l8.9-2.9l4.8,6.7h42.9l11.3-4.7l4.2,4.7h13.9l-9.6-7.7L111.3,3z M40.6,16.4l-6.7-7.9
	l13.3-4.3l2.3,1.5L40.6,16.4z"/>
<path class="st0" d="M115.3,4.1c0.3,0,0.5,0.1,0.7,0.2c0.2,0.1,0.4,0.3,0.6,0.6c0.1,0.2,0.2,0.5,0.2,0.8c0,0.3-0.1,0.5-0.2,0.7
	c-0.1,0.2-0.3,0.4-0.6,0.6c-0.2,0.1-0.5,0.2-0.7,0.2c-0.3,0-0.5-0.1-0.8-0.2c-0.2-0.1-0.4-0.3-0.6-0.6c-0.1-0.2-0.2-0.5-0.2-0.7
	c0-0.3,0.1-0.5,0.2-0.8c0.1-0.2,0.3-0.4,0.6-0.6C114.8,4.2,115,4.1,115.3,4.1 M115.3,4.3c-0.2,0-0.4,0.1-0.6,0.2
	c-0.2,0.1-0.4,0.3-0.5,0.5c-0.2,0.4-0.2,0.9,0,1.3c0.1,0.2,0.3,0.4,0.5,0.5c0.2,0.1,0.4,0.2,0.6,0.2c0.2,0,0.4-0.1,0.6-0.2
	c0.2-0.1,0.4-0.3,0.5-0.5c0.1-0.2,0.2-0.4,0.2-0.6c0-0.2-0.1-0.4-0.2-0.6c-0.1-0.2-0.3-0.4-0.5-0.5C115.7,4.4,115.5,4.3,115.3,4.3
	 M114.6,6.4V4.8h0.6c0.1,0,0.3,0,0.4,0c0.2,0.1,0.3,0.2,0.3,0.4c0,0.1,0,0.2-0.1,0.3c-0.1,0.1-0.2,0.1-0.3,0.1
	c0.1,0,0.1,0.1,0.1,0.1c0.1,0.1,0.2,0.2,0.2,0.3l0.2,0.3h-0.3l-0.2-0.3c-0.1-0.1-0.2-0.3-0.3-0.4c-0.1,0-0.1-0.1-0.2-0.1h-0.1v0.7
	L114.6,6.4z M114.9,5.5h0.3c0.1,0,0.2,0,0.3-0.1c0.1,0,0.1-0.1,0.1-0.2c0,0,0-0.1,0-0.1c0,0-0.1-0.1-0.1-0.1c-0.1,0-0.2,0-0.3,0
	h-0.3L114.9,5.5z"/>
</svg>
