<?xml version="1.0" encoding="utf-8"?>
<!-- Generator: Adobe Illustrator 26.5.0, SVG Export Plug-In . SVG Version: 6.00 Build 0)  -->
<svg version="1.1" id="Layer_1" xmlns="http://www.w3.org/2000/svg" xmlns:xlink="http://www.w3.org/1999/xlink" x="0px" y="0px"
	 viewBox="0 0 97.1 19.9" style="enable-background:new 0 0 97.1 19.9;" xml:space="preserve">
<style type="text/css">
	.st0{fill:#808080;}
</style>
<path class="st0" d="M12.9,4.3c0.9-1-2.4-1.8-2.2-1.9h15l-7,7.5c0,0,19.9-7.5,20.2-7.5h12.7c-4.8,1.5-17.7,5.7-17.7,5.7
	s8.1,8.5,8.9,9.4H31.4c-0.2-0.3-5.1-7.1-5.1-7.1l-10.4,3.3c0,0-2.9,3.3-3.4,3.9H0C1,16.3,9.6,8.1,12.9,4.3 M65.9,9.6l-8.1-7.3h11.5
	l4.3,4.6c0,0,11-4.4,11.3-4.6h12.2c-4.5,1.8-20.2,7.8-20.2,7.8s3.3,3,5.5,5.3c1.4,1,2.9,1.7,4.6,2.1H73.4c-0.2-0.3-4.2-4.7-4.2-4.7
	s-11.3,4.6-11.6,4.7H45.4C48,16.5,65.9,9.6,65.9,9.6"/>
</svg>
