<?xml version="1.0" encoding="utf-8"?>
<!-- Generator: Adobe Illustrator 26.5.0, SVG Export Plug-In . SVG Version: 6.00 Build 0)  -->
<svg version="1.1" id="Layer_1" xmlns="http://www.w3.org/2000/svg" xmlns:xlink="http://www.w3.org/1999/xlink" x="0px" y="0px"
	 viewBox="0 0 122.8 26.8" style="enable-background:new 0 0 122.8 26.8;" xml:space="preserve">
<style type="text/css">
	.st0{fill:#808080;}
</style>
<g transform="translate(-38.5 -45)">
	<g transform="translate(38.5 45)">
		<path class="st0" d="M0,24.1L15.9,2.7h8.4v7.7L30,2.7h8.1v21.4h-8.6V15l-6.7,9.1h-6.9V15l-6.7,9.1H0z"/>
		<path class="st0" d="M41.2,2.7v17.1c0,0,0,4.2,4.9,4.2h19.1V2.7h-8.5v16.1h-6.9V2.7H41.2z"/>
		<path class="st0" d="M68.3,2.7v21.4h21.9v-5.2H76.8V2.7H68.3z"/>
		<path class="st0" d="M93,2.7v21.4h29.8l-3.4-5.2h-17.8v-2.9h16l-3.4-5.2h-12.5V8h10.8l-3.4-5.2H93z"/>
	</g>
</g>
</svg>
