<svg xmlns="http://www.w3.org/2000/svg" width="141.851" height="20.099" viewBox="0 0 141.851 20.099"><g transform="translate(-35.6 -51.9)"><g transform="translate(35.6 51.9)"><path d="M73.215,51.9,71.321,55H61.853L53.934,68.082H38.354L46.316,55H35.6l1.894-3.1Z" transform="translate(-35.6 -51.9)" fill="gray"/><path d="M91.572,62.8h24.359l-1.463,2.367h-12.7l-1.334,2.152h12.438l-1.291,2.152H99.147L97.6,72.01l13.557-.043-1.42,2.324H84.6Z" transform="translate(-63.512 -58.109)" fill="gray"/><path d="M153.529,62.8h8.22q8.263,0,11.1.129a11.568,11.568,0,0,1,4.218.861,1.278,1.278,0,0,1,.559,2.109,3.818,3.818,0,0,1-2.367,1.765,25.839,25.839,0,0,1-5.423.559,19.6,19.6,0,0,1,4.3.6c.646.258.99.473,1.076.689s-.172.775-.732,1.722l-1.851,3.056h-10.8l2.324-3.83c.387-.6.387-.99.086-1.119a10.654,10.654,0,0,0-2.84-.215l-3.142,5.164H146.6Zm10.415,1.98-1.549,2.539a21.8,21.8,0,0,0,2.84-.129,1.892,1.892,0,0,0,1.334-.861l.387-.646c.215-.344.086-.6-.387-.689a8.514,8.514,0,0,0-2.625-.215" transform="translate(-98.828 -58.109)" fill="gray"/><path d="M297.743,62.8l-9.21,5.035-.215,6.456H277.558l.689-4.261-6.628,4.261H260.3l10.759-6.413,1.635-5.078h10.5l-.818,3.185,5.638-3.185Z" transform="translate(-163.595 -58.109)" fill="gray"/><path d="M205.364,76.658l5.552-6.068,12.438-7.79H212.681l-5.294,3.357L205.752,62.8H195.9l3.615,7.489-4.218,5.078H178.122l-1.722,2.84h26.038a3.816,3.816,0,0,0,2.668-1.162Z" transform="translate(-115.803 -58.109)" fill="gray"/></g><g transform="translate(171.77 56.376)"><path d="M356.863,63.161a2.819,2.819,0,0,1-2.023,4.82,2.8,2.8,0,0,1-2.023-.861A2.918,2.918,0,0,1,352,65.14a2.8,2.8,0,0,1,.861-2.023,2.763,2.763,0,0,1,1.98-.818A2.8,2.8,0,0,1,356.863,63.161Zm-3.7.258a2.413,2.413,0,0,0-.732,1.721,2.425,2.425,0,0,0,2.367,2.41,2.585,2.585,0,0,0,1.765-.689,2.209,2.209,0,0,0,.689-1.678,2.239,2.239,0,0,0-.689-1.722,2.413,2.413,0,0,0-1.722-.732A2.209,2.209,0,0,0,353.162,63.419Zm1.765.086c.9,0,1.334.3,1.334.861a.809.809,0,0,1-.689.861l.689,1.42h-.775l-.646-1.334h-.516v1.334h-.689V63.462h1.291Zm-.559,1.42h.43c.516,0,.732-.129.732-.473s-.258-.516-.775-.516h-.43v.99Z" transform="translate(-352 -62.3)" fill="gray"/></g></g></svg>