<?xml version="1.0" encoding="utf-8"?>
<!-- Generator: Adobe Illustrator 26.5.0, SVG Export Plug-In . SVG Version: 6.00 Build 0)  -->
<svg version="1.1" id="Layer_1" xmlns="http://www.w3.org/2000/svg" xmlns:xlink="http://www.w3.org/1999/xlink" x="0px" y="0px"
	 viewBox="0 0 66.9 35.4" style="enable-background:new 0 0 66.9 35.4;" xml:space="preserve">
<style type="text/css">
	.st0{fill:#808080;}
</style>
<g transform="translate(-0.002 0)">
	<path class="st0" d="M0.5,29.9c-0.5,0.2-0.7,0-0.2-0.3c0,0,13.8-9.2,27-18.3c5.3-3.7,5.6-3.5,0.1-4.1c-14.6-1.6-23.9-3-23.9-3
		C2.8,4.1,2.9,3.8,3.6,3.8h55.1c0.8,0,0.9,0.3,0.1,0.6L0.5,29.9z"/>
	<path class="st0" d="M59.6,5.7C60,5.5,60.2,5.7,59.8,6c0,0-10.2,8-23,17.6c-3.7,2.7-3.8,2.7,0.7,3.4c13.9,2.3,24.9,4.2,24.9,4.2
		c1.2,0.2,1.2,0.6-0.1,0.6L1.3,31.8c-0.8,0-0.9-0.3-0.1-0.6L59.6,5.7z"/>
	<path class="st0" d="M66.3,4.1C67,4.8,67,6,66.3,6.7c0,0,0,0,0,0c-0.7,0.7-1.9,0.8-2.6,0.1c-0.4-0.4-0.6-0.9-0.6-1.4
		c0-0.5,0.2-1,0.5-1.3C64.4,3.4,65.6,3.4,66.3,4.1C66.3,4.1,66.3,4.1,66.3,4.1 M63.9,4.3c-0.3,0.3-0.5,0.7-0.5,1.1
		c0,0.4,0.2,0.8,0.4,1.1C64.2,6.8,64.6,7,65,7c0.4,0,0.8-0.2,1.1-0.5c0.3-0.3,0.5-0.7,0.5-1.1c0-0.4-0.2-0.8-0.5-1.1
		C65.8,4,65.4,3.8,65,3.8C64.6,3.8,64.2,4,63.9,4.3 M65,4.3c0.6,0,0.9,0.2,0.9,0.6c0,0.3-0.2,0.5-0.5,0.6l0.5,0.9h-0.5L65,5.5h-0.3
		v0.9h-0.4V4.3L65,4.3z M64.7,5.2H65c0.3,0,0.5-0.1,0.5-0.3c0-0.2-0.2-0.3-0.5-0.3h-0.3L64.7,5.2z"/>
</g>
</svg>
