<svg xmlns="http://www.w3.org/2000/svg" width="13.628" height="20.441" viewBox="0 0 13.628 20.441"><g transform="translate(-4)"><path d="M13.223,9.223a3.282,3.282,0,0,0,1-2.409,3.282,3.282,0,0,0-1-2.409,3.406,3.406,0,0,0-4.818,0,3.282,3.282,0,0,0-1,2.409,3.282,3.282,0,0,0,1,2.409,3.406,3.406,0,0,0,4.818,0Zm4.405-2.409A5.6,5.6,0,0,1,17.188,9.2L12.344,19.5a1.615,1.615,0,0,1-.632.692,1.722,1.722,0,0,1-1.8,0A1.533,1.533,0,0,1,9.3,19.5L4.439,9.2A5.6,5.6,0,0,1,4,6.814,6.565,6.565,0,0,1,6,2a6.565,6.565,0,0,1,4.818-2,6.565,6.565,0,0,1,4.818,2A6.565,6.565,0,0,1,17.628,6.814Z" transform="translate(0 0)" fill="#6c3"/></g></svg>