<svg xmlns="http://www.w3.org/2000/svg" width="385.161" height="59.56" viewBox="0 0 385.161 59.56"><g transform="translate(-50.4 -58.291)"><path d="M390.723,111.7l12.152-10.215H367.564l4.843-4.139h31.084c4.051,0,10.743-5.548,10.743-5.548H363.777l-18.228,15.586H377.69l-5.019,4.227a18.775,18.775,0,0,1-5.371,3.17,20.543,20.543,0,0,1-3.434.969,2.438,2.438,0,0,1-.792.088,17.1,17.1,0,0,1-2.113.176h-3.7c-1.5,0-2.554-.264-3.082-.881s-.44-1.321.352-2.289c.264-.264,1.057-1.057,2.113-1.937.176-.176.352-.264.528-.44H341.939a6.773,6.773,0,0,0-.616.528c-2.2,1.849-6.956,5.724-6.428,7.221.528,1.409,3.258,2.113,6.252,2.113H367.3c.264,0,8.189-.881,12.5-2.466a35.226,35.226,0,0,0,10.743-5.812.457.457,0,0,1,.176-.352" transform="translate(-33.973 -4.241)" fill="#fff"/><path d="M476.406,91.8H439.775a39.5,39.5,0,0,0-12.856,2.554,40.514,40.514,0,0,0-7.573,3.522l-1.585,1.057-2.113,1.585L392.4,120.154h36.456a37.013,37.013,0,0,0,12.856-2.466,36.146,36.146,0,0,0,11.359-6.164Zm-44.733,21.134a22.647,22.647,0,0,1-2.378.969,4.289,4.289,0,0,0-.616.264,6.127,6.127,0,0,1-2.025.352H414.59l14-11.8a9.966,9.966,0,0,1,1.145-.881c.969-.7,2.113-1.409,3.17-2.025.44-.264.969-.528,1.409-.793a4.294,4.294,0,0,1,.616-.264,10.816,10.816,0,0,1,4.4-1.233H451.31S437.221,109.5,437.133,109.5a25.185,25.185,0,0,1-5.46,3.434" transform="translate(-40.845 -4.241)" fill="#fff"/><path d="M288.319,114.247l.264-.264a16.121,16.121,0,0,1,3.786-2.2,21.287,21.287,0,0,1,3.082-.969,23.81,23.81,0,0,1,6.516-.7h27.21l11.712-9.95.44-.44.176-.176a11.176,11.176,0,0,0,2.113-2.818,3.379,3.379,0,0,0,.088-3.17c-.793-1.585-2.994-2.466-6.516-2.554h-27.3a32.6,32.6,0,0,0-5.548.528,46.622,46.622,0,0,0-5.548,1.409,16.134,16.134,0,0,0-4.667,2.906c-.969.793-5.636,4.843-5.636,4.843h15.938a10.55,10.55,0,0,1,1.057-.969c.616-.528,1.145-.969,1.5-1.233.176-.088.352-.264.528-.352a18.627,18.627,0,0,1,3.258-1.585,4.965,4.965,0,0,1,1.057-.352,15.879,15.879,0,0,1,5.019-.881H320.2a5.688,5.688,0,0,1,2.289.352,2.195,2.195,0,0,1,1.321.969,1.8,1.8,0,0,1-.264,1.937,9.6,9.6,0,0,1-.969,1.145l-.264.264-5.283,4.491H295.187c-9.07,0-16.995,5.019-22.366,9.6-2.994,2.554-7.221,6.076-7.221,6.076h51.777l6.956-5.9Z" transform="translate(-25.702 -4.145)" fill="#fff"/><path d="M206.261,106.335S244.83,91.542,251.7,88.9H217.532l-20.781,8.453L188.825,88.9h-59.7S108.782,96.473,97.6,100.7l10.919-11.8H65.81c.088,0,10.215,3.875,10.655,5.812,0,.176,0,.352-.176.44L50.4,121.745H79.459l6.78-7.661,18.052-5.724,9.686,13.385h51.865l21.486-8.718,7.837,8.718h37.776c-2.378-.616-14.794-4.667-18.316-7.485C211.72,111.619,206.261,106.335,206.261,106.335ZM115.034,119.9c-.44-.616-9.862-13.737-9.862-13.737l-19.9,6.252s-5.636,6.428-6.516,7.4H54.8c2.025-2.289,18.492-18.14,24.92-25.36,1.761-1.937-4.491-3.434-4.315-3.7h28.883L90.818,105.279s38.3-14.353,38.745-14.529h24.48c-9.246,2.906-34.078,10.919-34.078,10.919s15.674,16.467,17.083,18.14C126.129,119.9,115.386,119.9,115.034,119.9Zm8.365-17.259,38.833-12.5,15.586,13.913-39.185,14.97ZM195.958,119.9c-.44-.528-8.1-9.07-8.1-9.07s-21.838,8.806-22.366,9.07H142.155c5.019-1.937,39.361-15.058,39.361-15.058L165.931,90.925h22.1l8.189,8.718s21.046-8.542,21.662-8.718h23.423c-8.542,3.258-38.657,14.794-38.657,14.794s6.34,5.724,10.655,10.127a28.447,28.447,0,0,0,8.806,4.139C217.092,119.9,196.662,119.9,195.958,119.9Z" transform="translate(0 -3.895)" fill="#fff"/><text transform="translate(65.084 76.291)" fill="#fff" font-size="20" font-family="Arial-BoldItalicMT, Arial" font-weight="700" font-style="italic"><tspan x="0" y="0">MODELO 2022</tspan></text></g></svg>