<svg xmlns="http://www.w3.org/2000/svg" width="476.396" height="40.527" viewBox="0 0 476.396 40.527"><path d="M96.5,16.1h8.207l2.736,9.22,2.938-9.22h6.788l2.634,9.22,3.04-9.22h7.7l-5.978,19.554h-7.6l-3.141-9.524-2.634,9.524h-7.9Z" transform="translate(1.272 0.212)" fill="#fff"/><path d="M150.7,28.877h7.194a2.91,2.91,0,0,0,3.04,2.938c2.533,0,2.432-1.418,2.432-1.418s.1-1.52-2.634-1.925c-3.04-.507-9.625-1.013-9.625-6.484,0,0-.608-6.687,9.524-6.687,7.092,0,9.524,3.141,9.524,6.788h-6.89a2.462,2.462,0,0,0-2.533-2.128c-1.52,0-2.33.507-2.33,1.216,0,.912.608,1.317,4.762,1.824,4.762,1.013,7.5,2.229,7.5,7.194s-5.167,6.586-9.828,6.586c-4.559-.2-10.132-1.722-10.132-7.9" transform="translate(1.986 0.202)" fill="#fff"/><path d="M179.1,22.8h-7.194s-1.52-7.9,10.537-7.9c0,0,8.916-.507,9.423,6.383s-.507,11.652,1.621,14.286h-7.7a7.288,7.288,0,0,1-1.013-1.824s-2.026,2.432-6.484,2.432c-4.357,0-6.89-2.533-6.89-5.876s1.925-5.674,8-6.788c2.432-.405,4.661-.709,4.762-2.128.1-1.317-1.722-1.621-2.229-1.621,0,.2-2.837,0-2.837,3.04m.811,5.572c-1.722.709-.811,2.026-.811,2.026a2.448,2.448,0,0,0,2.837.912c2.938-.811,2.634-4.661,2.634-4.661a38.467,38.467,0,0,0-4.661,1.722" transform="translate(2.259 0.196)" fill="#fff"/><rect width="7.903" height="5.471" transform="translate(219.555 8.916)" fill="#fff"/><rect width="7.903" height="19.554" transform="translate(219.555 16.312)" fill="#fff"/><path d="M201.6,35.752h-7.8V8.7h7.8V20.858l4.053-4.661h9.22l-6.89,7.295,8,12.259h-9.017l-4.357-6.586L201.6,30.281Z" transform="translate(2.554 0.115)" fill="#fff"/><path d="M50.5,8.8h8.207v8.207L66.913,8.8H77.248L66.711,19.54,77.957,35.751H67.319L60.834,25.619l-2.128,2.128v8H50.5Z" transform="translate(0.665 0.116)" fill="#fff"/><path d="M84.4,22.8H77.207s-1.52-7.9,10.537-7.9c0,0,8.916-.507,9.423,6.383s-.507,11.652,1.621,14.286h-7.7a7.288,7.288,0,0,1-1.013-1.824s-2.026,2.432-6.484,2.432S76.7,33.644,76.7,30.3s1.925-5.674,8-6.788c2.432-.405,4.661-.709,4.762-2.128.1-1.317-1.722-1.621-2.229-1.621,0,.2-2.837,0-2.837,3.04m.811,5.572c-1.722.709-.811,2.026-.811,2.026a2.448,2.448,0,0,0,2.837.912c2.938-.811,2.634-4.661,2.634-4.661a46.325,46.325,0,0,0-4.661,1.722" transform="translate(1.011 0.196)" fill="#fff"/><path d="M137,22.8h-7.194s-1.52-7.9,10.537-7.9c0,0,8.916-.507,9.423,6.383s-.507,11.652,1.621,14.286h-7.7a7.288,7.288,0,0,1-1.013-1.824s-2.026,2.432-6.484,2.432c-4.357,0-6.89-2.533-6.89-5.876s1.925-5.674,8-6.788c2.432-.405,4.661-.709,4.762-2.128.1-1.317-1.722-1.621-2.229-1.621,0,.2-2.837,0-2.837,3.04m.811,5.572C136.088,29.085,137,30.4,137,30.4a2.448,2.448,0,0,0,2.837.912c2.938-.811,2.634-4.661,2.634-4.661a38.467,38.467,0,0,0-4.661,1.722" transform="translate(1.704 0.196)" fill="#fff"/><path d="M28.055,22.183h0v-3.85H40.011A20.347,20.347,0,0,0,23.8.4V4.757a15.931,15.931,0,0,1,10.841,9.321H23.8V26.439H34.641A16.541,16.541,0,0,1,23.8,35.861v4.357A20.243,20.243,0,0,0,40.011,22.183H28.055Z" transform="translate(0.314 0.005)" fill="#fff"/><path d="M22.055.1A14.269,14.269,0,0,0,19.928,0,14.269,14.269,0,0,0,17.8.1V40.426a15.688,15.688,0,0,0,2.128.1,15.688,15.688,0,0,0,2.128-.1Z" transform="translate(0.235)" fill="#fff"/><path d="M5.37,26.439H16.211V14.078H5.37A16.143,16.143,0,0,1,16.211,4.757V.4A20.243,20.243,0,0,0,0,18.333H11.955v3.85H0A20.449,20.449,0,0,0,16.312,40.218V35.861A16.485,16.485,0,0,1,5.37,26.439" transform="translate(0 0.005)" fill="#fff"/><path d="M245.8,15.7h2.33V29.783h6.788V31.81H245.8Z" transform="translate(3.239 0.207)" fill="#fff"/><path d="M265.528,31.25a8.944,8.944,0,0,1-3.749.811c-4.154,0-6.079-2.533-6.079-6.383,0-3.445,2.229-5.978,5.572-5.978,3.951,0,5.167,2.837,5.167,6.687H258.03a3.871,3.871,0,0,0,3.85,3.951,6.436,6.436,0,0,0,3.647-1.216Zm-1.418-6.484c0-1.824-1.013-3.242-2.938-3.242a3.169,3.169,0,0,0-3.141,3.242Z" transform="translate(3.369 0.26)" fill="#fff"/><path d="M274.8,21.767h-3.141v6.484a1.905,1.905,0,0,0,1.824,2.128,3.021,3.021,0,0,0,1.52-.405V31.8a8.529,8.529,0,0,1-1.824.3c-2.229,0-3.647-1.013-3.647-3.445v-6.89H266.9V20.045h2.634V17.309l2.128-.709v3.445H274.8Z" transform="translate(3.517 0.219)" fill="#fff"/><path d="M288.8,21.767h-3.141v6.484a1.905,1.905,0,0,0,1.824,2.128,3.021,3.021,0,0,0,1.52-.405V31.8a8.529,8.529,0,0,1-1.824.3c-2.229,0-3.647-1.013-3.647-3.445v-6.89H280.9V20.045h2.634V17.309l2.128-.709v3.445H288.8Z" transform="translate(3.701 0.219)" fill="#fff"/><path d="M290.8,14.5h2.128v7.194h0a4.346,4.346,0,0,1,3.749-1.925c3.04,0,4.458,1.925,4.458,5.066v6.991h-2.128V25.746c0-2.736-.608-4.053-2.533-4.255-2.432,0-3.546,2.026-3.546,4.863v5.471H290.8Z" transform="translate(3.832 0.191)" fill="#fff"/><path d="M313.128,31.25a8.944,8.944,0,0,1-3.749.811c-4.154,0-6.079-2.533-6.079-6.383,0-3.445,2.229-5.978,5.572-5.978,3.951,0,5.167,2.837,5.167,6.687H305.63a3.871,3.871,0,0,0,3.85,3.951,6.436,6.436,0,0,0,3.647-1.216Zm-1.418-6.484c0-1.824-1.013-3.242-2.938-3.242a3.169,3.169,0,0,0-3.141,3.242Z" transform="translate(3.997 0.26)" fill="#fff"/><path d="M332.346,31.25c0,3.546-1.824,5.674-6.079,5.674a13.293,13.293,0,0,1-4.255-.811l.2-2.026A8.229,8.229,0,0,0,326.47,35.1c2.33,0,3.647-1.52,3.647-4.053V29.933h0a4.9,4.9,0,0,1-3.951,1.824c-3.343,0-5.066-2.736-5.066-5.775s1.722-6.282,5.269-6.282c2.128,0,3.242.811,3.85,2.026h0V20h2.026V31.25Zm-2.229-5.269c0-2.432-1.115-4.559-3.445-4.559-2.229,0-3.242,2.33-3.242,4.357,0,2.229,1.216,4.154,3.242,4.154s3.445-1.722,3.445-3.951" transform="translate(4.231 0.26)" fill="#fff"/><path d="M340.378,19.7a5.855,5.855,0,0,1,5.978,6.18,5.981,5.981,0,1,1-11.955,0,5.8,5.8,0,0,1,5.978-6.18m0,10.537c2.533,0,3.647-2.33,3.647-4.458,0-2.229-1.317-4.458-3.647-4.458s-3.647,2.128-3.647,4.458c0,2.229,1.115,4.458,3.647,4.458" transform="translate(4.406 0.26)" fill="#fff"/><path d="M353.778,19.7a5.855,5.855,0,0,1,5.978,6.18,5.981,5.981,0,1,1-11.955,0,5.692,5.692,0,0,1,5.978-6.18m0,10.537c2.533,0,3.647-2.33,3.647-4.458,0-2.229-1.317-4.458-3.647-4.458s-3.647,2.128-3.647,4.458c-.1,2.229,1.013,4.458,3.647,4.458" transform="translate(4.583 0.26)" fill="#fff"/><path d="M370.219,30.2h0a4.716,4.716,0,0,1-4.053,1.925c-3.546,0-5.066-3.141-5.066-6.383,0-3.141,1.621-5.978,5.066-5.978a4.325,4.325,0,0,1,3.951,1.925h0V14.5h2.128V31.825h-2.128V30.2Zm-3.546.1c2.432,0,3.445-2.432,3.445-4.357,0-2.229-1.115-4.458-3.445-4.458s-3.242,2.229-3.242,4.357c-.1,1.925.912,4.458,3.242,4.458" transform="translate(4.758 0.191)" fill="#fff"/><path d="M387.2,21.767h-3.141v6.484a1.905,1.905,0,0,0,1.824,2.128,3.021,3.021,0,0,0,1.52-.405V31.8a8.529,8.529,0,0,1-1.824.3c-2.229,0-3.647-1.013-3.647-3.445v-6.89H379.3V20.045h2.634V17.309l2.128-.709v3.445H387.2Z" transform="translate(4.998 0.219)" fill="#fff"/><path d="M391.732,17.432H389.3V15h2.432Zm-2.33,2.634h2.128V31.819H389.4Z" transform="translate(5.13 0.198)" fill="#fff"/><path d="M394.8,20h2.026v1.722h0a4.1,4.1,0,0,1,3.749-2.026,3.505,3.505,0,0,1,3.343,2.33,4.235,4.235,0,0,1,3.647-2.33c3.04,0,4.053,1.925,4.053,4.458v7.6h-2.128V24.766c0-1.418-.3-3.242-2.128-3.242-2.229,0-3.141,2.128-3.141,4.357v5.978H402.1V24.867c0-1.418-.3-3.242-2.128-3.242-2.229,0-3.141,2.128-3.141,4.357v5.978H394.7V20Z" transform="translate(5.201 0.26)" fill="#fff"/><path d="M423.528,31.25a8.944,8.944,0,0,1-3.749.811c-4.154,0-6.079-2.533-6.079-6.383,0-3.445,2.229-5.978,5.572-5.978,3.951,0,5.167,2.837,5.167,6.687H416.03a3.871,3.871,0,0,0,3.85,3.951,6.436,6.436,0,0,0,3.647-1.216Zm-1.418-6.484c0-1.824-1.013-3.242-2.938-3.242a3.169,3.169,0,0,0-3.141,3.242Z" transform="translate(5.451 0.26)" fill="#fff"/><path d="M425.7,29.428a6.369,6.369,0,0,0,2.736.811c1.013,0,2.229-.405,2.229-1.722,0-2.128-5.066-1.925-5.066-5.269,0-2.432,1.824-3.647,4.154-3.647a8.189,8.189,0,0,1,2.736.507l-.2,1.925a6.625,6.625,0,0,0-2.33-.608c-1.115,0-2.128.507-2.128,1.418,0,2.432,5.066,1.722,5.066,5.471,0,2.533-2.026,3.647-4.154,3.647a7.118,7.118,0,0,1-3.242-.608Z" transform="translate(5.607 0.258)" fill="#fff"/><path d="M440.6,20h2.026v1.824h0a3.66,3.66,0,0,1,3.04-2.128,5.281,5.281,0,0,1,1.418.2v1.925a2.57,2.57,0,0,0-1.216-.2c-1.925,0-3.242,1.824-3.242,4.762v5.37H440.5V20Z" transform="translate(5.805 0.26)" fill="#fff"/><path d="M454.078,19.7a5.855,5.855,0,0,1,5.978,6.18,5.981,5.981,0,1,1-11.955,0,5.692,5.692,0,0,1,5.978-6.18m0,10.537c2.533,0,3.647-2.33,3.647-4.458,0-2.229-1.317-4.458-3.647-4.458s-3.647,2.128-3.647,4.458c-.1,2.229,1.013,4.458,3.647,4.458" transform="translate(5.905 0.26)" fill="#fff"/><rect width="2.128" height="17.325" transform="translate(468.493 14.691)" fill="#fff"/><rect width="2.128" height="17.325" transform="translate(474.268 14.691)" fill="#fff"/></svg>