<?xml version="1.0" encoding="utf-8"?>
<!-- Generator: Adobe Illustrator 26.5.0, SVG Export Plug-In . SVG Version: 6.00 Build 0)  -->
<svg version="1.1" id="Capa_1" xmlns="http://www.w3.org/2000/svg" xmlns:xlink="http://www.w3.org/1999/xlink" x="0px" y="0px"
	 viewBox="0 0 439.6 116.4" style="enable-background:new 0 0 439.6 116.4;" xml:space="preserve">
<style type="text/css">
	.st0{fill:#FFFFFF;}
</style>
<g>
	<g>
		<g>
			<path class="st0" d="M375.4,54.4h-0.9h-44.4c-2.5,0-5,0.7-6,1.9l-14,16l0,0l-0.5,0.6c-0.5,0.6,0.1,1.8,2.6,1.8h0.9l0,0h44.7
				c2.1,0,4.5-0.6,5.6-1.8l14.1-16.1l0,0l0.5-0.6C378.5,55.6,377.9,54.4,375.4,54.4z M352.1,69.7h-25.5l9-10.3h25.5L352.1,69.7z"/>
			<g>
				<path class="st0" d="M301.4,68.3l10.1-11.5l0.5-0.6c0.5-0.6-0.1-1.8-2.6-1.8h-0.9h-28l-25.7,12.2l-5.7,6.5h33.7l-2.2,2.6H295
					l2.2-2.6h6l4.2-4.8C307.4,68.3,301.4,68.3,301.4,68.3z M287,68.3h-19.6l18.7-8.9h8.7L287,68.3z"/>
			</g>
			<path class="st0" d="M435.4,54.4h-0.9h-44.4c-2.5,0-5,0.7-6,1.9l-14,16l0,0l-0.5,0.6c-0.5,0.6,0.1,1.8,2.6,1.8h0.9l0,0h44.7
				c2.1,0,4.5-0.6,5.6-1.8l14.1-16.1l0,0l0.5-0.6C438.5,55.6,437.9,54.4,435.4,54.4z M412.1,69.7h-25.5l9-10.3h25.5L412.1,69.7z"/>
		</g>
	</g>
	<g>
		<g>
			<path class="st0" d="M226.9,38.5c0.7,0.7,1.1,1.7,1.1,2.7c0,1.1-0.4,2.1-1.1,2.8c-0.8,0.7-1.8,1.1-2.8,1.1s-2-0.4-2.8-1.2
				c-0.7-0.7-1.1-1.7-1.1-2.7s0.4-2,1.2-2.8c0.7-0.7,1.7-1.1,2.7-1.1C225.2,37.4,226.2,37.8,226.9,38.5z M221.8,38.9
				c-0.6,0.7-1,1.5-1,2.4s0.3,1.7,1,2.3c0.6,0.6,1.5,1,2.3,1c0.9,0,1.8-0.3,2.4-1c0.6-0.6,1-1.4,1-2.3s-0.3-1.8-1-2.4
				c-0.6-0.7-1.5-1-2.4-1S222.4,38.3,221.8,38.9z M224.2,39c1.2,0,1.9,0.4,1.9,1.2c0,0.6-0.3,1.1-1,1.2l1,2H225l-0.9-1.8h-0.7v1.8
				h-0.9V39C222.5,39,224.2,39,224.2,39z M223.5,41h0.6c0.7,0,1-0.2,1-0.7s-0.3-0.7-1.1-0.7h-0.6V41H223.5z"/>
		</g>
		<g>
			<path class="st0" d="M44.3,32.4c0,0-13,15.8-17,26.6c-1.2,3.3-5.8,12-8.6,16.5c-2.2,3.4-5.6,5-9,5.8c-3.3,0.8-6.3,0.6-7.2-0.1
				c-2.3-1.6,2.1-8.8,4.6-12.7c2.8-4.3,5.7-8.3,11.6-15.5c5.8-7.2,15.1-16.1,15.1-16.1s9.6-8.9,12.6-11.8c3-2.8,2.4-3.5,4.5-5
				c2.2-1.5,4.7-1.4,7.3,0.8c2.6,2.2,2.5,4.6,1.8,6.3c-0.3,0.7-3.2,7.9-6.1,14.7c-4.6,10.9-7.6,17.7-9.1,21.3
				c-2.7,6.1-1.7,8.4,0.6,6.6c0.9-0.7,5.2-7.1,8.6-11.4c5.1-6.5,9.6-11.5,9.6-11.5S84.7,22.7,87,19.8c2.3-2.9,2.3-4.2,3.7-5.4
				s2.9-1.3,4.4,0.2s1.3,2.8,0,4.1s-2.9,1.2-5.2,4.2S75.5,41.7,75.5,41.7S62,62.3,56.8,69.4c-5.3,7-7.4,9.4-10.3,11.9
				c-2.2,1.8-4.3,4-12.8,3.9c-2-0.5-7-1.6-6.4-5.4c0.1-0.8,1-4.9,3.2-10.8c1.8-4.7,4.9-10.8,6.9-16.2c4.2-11,8-19.9,8-21.1
				C45.6,30.8,44.3,32.4,44.3,32.4z"/>
			<path class="st0" d="M96.4,31.1c1.5-2,7.1-9.4,8.7-11.4c1.6-2,5.7-4.1,7.7-1.8c2.1,2.3,2.4,6.5,0.6,7.4
				c-8.6,4.4-11.2,5.3-14.5,7.4C97,33.9,94.9,33.1,96.4,31.1z"/>
			<path class="st0" d="M74.5,47.5c1.5-0.8,6-2.5,8.3-4.7s5.5-5.6,7.1-5.8c1.7-0.1,2-0.1,4.4,1.2c2.4,1.3,2.7,1.7,2.5,3.3
				c-0.2,1.6-2.9,7.1-4.4,8.9c-1.2,1.4-6.2,5.8-7,6.8c-0.9,1,0.2,1.8,1.1,1.3c0.9-0.6,17-10.8,19.1-12.3c2.1-1.6,10.8-7.9,14.4-6.5
				c3.6,1.5,1.2,6.7,1.2,6.7s7.9-4.6,12.5-7.4c4-2.5,10.4-4.3,13.2-2.8c3.1,1.6,4.1,4.3,3.6,5.7c-1.2,3-3.5,6.1-5.2,7.9
				s-12.9,13.7-13.6,14.5c-0.7,0.8-0.2,1.6,0.7,1.3c0.9-0.3,2.1-0.7,3.2-1c1.1-0.3,0.8,2.5,0,3.4s-4.8,3.1-8.8,6.1
				c-1.5,1.1-2.6,2.3-3.2,2.6c-2.3,1.2-4.4-0.7-6.1-2.1c-1.6-1.4-4.8-4.2-4-6.5c1.3-3.4,14.8-16,15.7-16.9c1.3-1.3-0.5-2.8-1.9-2
				c-1.6,0.8-9.4,5.1-15.7,9.6c-3.6,2.6-7,8.9-9,12c-2.8,4.3-3.4,7.7-5.4,7.7c-2.3,0-6.5-2.9-7.4-4.2c-0.9-1.4-0.9-3.6-0.2-5.1
				c0.8-1.8,6.5-7.2,10.9-11.4c2-1.9,4.2-4.3,5.1-5.3c1.5-1.9,2.7-3.3,3.2-4.2c0.8-1.4,0.2-1.8-0.6-1.1c-1.1,0.9-6.2,4.5-6.2,4.5
				S85.7,62.8,83.2,65.2c-2.5,2.4-8.9,8.3-10.3,9.5s-4.4,2.7-8.1,1.9c-2.7-0.6-3.9-2.1-4.2-3.7c-0.3-1.6,0.9-2.9,2.7-5.5
				c0.6-0.9,4.4-5.8,4.9-6.3c2.5-2.6,6.5-3.2,6.6-6c0-1.6-2.9-2.9-3-4.2C71.5,50.2,73,48.3,74.5,47.5z"/>
			<path class="st0" d="M167.5,42.1c2.3,2.2,2,6.5,0.4,7.8s-3.1,2.4-4,3.3s-0.9,1.8-2.1,3.4c-1.2,1.6-13.3,17.1-13.3,17.1
				s-1.4,2.2-3.7,4.8c-2.3,2.6-4.9,6-8.1,8.4c-2.7,2.1-4.1,2.7-7.8,3.7c-3.9,1-8.4,1.7-10.6,2.7c-4.3,1.8-17.5,8.6-19.8,9.9
				c-2.4,1.4-6.1,0.3-3.6-1.3c3.7-2.5,17.2-9.6,20.4-13.6c1.2-1.4,5.1-3.4,9.4-7.1c1.8-1.6,4.7-5.2,5.5-5.9
				c8.9-7.2,14.9-17.8,16.6-20.1c1.6-2.2,2.3-4.4,4.3-6c1.7-1.5,5.8-3.5,6.8-4.3c1.6-1.4,3.5-5.1,3.8-5.3
				C162.3,39.1,165.1,40,167.5,42.1z"/>
			<path class="st0" d="M181.9,14.8c1-0.9,3.3-2,5.6,1.3c1.7,2.5,1.2,4.4,0.7,5.3c-0.4,0.9-1.8,2.4-3.5,3.4c-2.4,1.5-4.1,2-7.6,3.8
				s-6.1,4.2-7.9,5.3c-1.8,1.1-3.2,0.6-1.5-2.1c0.7-1.2,5.1-6.6,8.4-10.8C179,17.3,180.9,15.7,181.9,14.8z"/>
			<path class="st0" d="M230.2,62.8c-1.4-3.1-3.3-3-5.1-2.3c-0.5,0.2-3,2-9.5,4.5c-1.2,0.5-13.5,4.5-16.4,5.4
				c-0.9,0.3-1.8-0.3-0.9-1.4c4-4.8,6.6-6.6,9-9.6c1.9-2.3-0.2-4.3,0.1-5.1c0.3-0.8,3-1.7,4.6-3.6c1.6-1.8,5.1-6.7,4.2-11
				c-0.8-3.7-6.6-3.6-11.8-1.8c-1,0.3-6,2.6-8.6,3.6c-4.2,1.6-7,1.8-24,11.3c-6,3.4-10,6.9-11.2,8.6c-0.6,0.8-2.8,3.8-3.7,6.3
				c-1,2.7-0.9,5.6-0.1,7.3c0.5,1,2.8,3.8,4.3,4.9c1.2,0.9,3.6,0.8,5.4-0.3c6.9-4.3,11.6-6.7,14.3-8.7c0.9-0.6,4-2.6,5.5-3.6
				c0.5-0.3,0.7-0.1,0.5,0.5c-0.2,0.5-1.9,6.1-0.7,9c1,2.5,3.8,3.3,5.4,2.7c1.6-0.6,17.3-7.1,29.7-10.1c5.5-1.4,8-0.8,8.9-1.7
				C231.6,66.5,230.8,63.9,230.2,62.8z M188.2,59.6c-1.5,1.6-2,2.8-2.8,3.2c-0.8,0.3-6.4,2.5-8.5,3.6c-2.7,1.4-5.2,2.3-7,3
				c-1.4,0.5-2.8,1.1-3.3,0.3c-0.6-1-0.2-2,2.3-4c3.8-3.1,11.2-7.4,14-8.9c2.9-1.5,7.2-3.4,9.8-4.6c2.6-1.3,6.6-2.8,8.6-2.6
				c1.3,0.2,1.9,1.6,1.3,2.3c-0.6,0.6-5.6,3.1-7.5,4.2C192.5,57.6,189.1,58.7,188.2,59.6z"/>
		</g>
	</g>
</g>
</svg>
